<?xml version="1.0" encoding="UTF-8" standalone="no"?>
<svg
   width="416"
   height="120"
   viewBox="0 0 416 120"
   version="1.1"
   xmlns="http://www.w3.org/2000/svg"
   xmlns:svg="http://www.w3.org/2000/svg">
  <defs />
  <g
     id="mark">
    <rect
       x="12"
       y="12"
       width="96"
       height="96"
       rx="21"
       fill="#0d0d2e" />
    <path
       d="M34 63 A30 30 0 0 1 75 52"
       fill="none"
       stroke="#f2e8cf"
       stroke-width="4"
       stroke-linecap="round" />
    <path
       d="M75 52 A30 30 0 0 1 86 63"
       fill="none"
       stroke="#e4574c"
       stroke-width="4"
       stroke-linecap="round" />
    <g
       stroke="#f2e8cf"
       stroke-width="2"
       opacity="0.55"
       stroke-linecap="round">
      <line
         x1="39.2"
         y1="66"
         x2="34.9"
         y2="63.5"
         id="line2" />
      <line
         x1="48"
         y1="57.2"
         x2="45.5"
         y2="52.9"
         id="line3" />
      <line
         x1="60"
         y1="54"
         x2="60"
         y2="49"
         id="line4" />
      <line
         x1="72"
         y1="57.2"
         x2="74.5"
         y2="52.9"
         id="line5" />
      <line
         x1="80.8"
         y1="66"
         x2="85.1"
         y2="63.5"
         id="line6" />
    </g>
    <line
       x1="60"
       y1="78"
       x2="74.9"
       y2="56.7"
       stroke="#f2e8cf"
       stroke-width="3.5"
       stroke-linecap="round"
       id="line7" />
    <circle
       cx="60"
       cy="78"
       r="4.5"
       fill="#f2e8cf" />
  </g>
  <path
     d="M 142.65625,74 V 44.898437 h 11.07422 q 3.125,0 5.39062,1.113282 2.28516,1.09375 3.51563,3.125 1.23047,2.03125 1.23047,4.824218 0,2.773438 -1.3086,4.804688 -1.30859,2.03125 -3.65234,3.125 -2.34375,1.09375 -5.46875,1.09375 h -8.28125 v -3.691406 h 8.39844 q 1.875,0 3.22265,-0.644532 1.36719,-0.644531 2.08985,-1.835937 0.72265,-1.210938 0.72265,-2.851563 0,-1.640625 -0.74218,-2.8125 -0.72266,-1.191406 -2.08985,-1.835937 -1.34765,-0.664063 -3.22265,-0.664063 h -6.54297 V 74 Z m 16.77734,0 -6.89453,-13.105469 h 4.7461 L 164.31641,74 Z m 28.42813,0.46875 q -3.4961,0 -6.01563,-1.191406 -2.51953,-1.191407 -3.88672,-3.417969 -1.36718,-2.226563 -1.36718,-5.292969 h 4.33593 q 0.0195,1.914063 0.83985,3.300781 0.82031,1.367188 2.36328,2.089844 1.5625,0.722656 3.73047,0.722656 1.99218,0 3.4375,-0.566406 1.46484,-0.566406 2.28515,-1.601562 0.82032,-1.054688 0.82032,-2.480469 0,-1.113281 -0.56641,-1.933594 -0.54688,-0.839844 -1.77734,-1.464844 -1.21094,-0.625 -3.24219,-1.09375 l -3.1836,-0.761718 q -4.41406,-1.035157 -6.44531,-2.929688 -2.01172,-1.894531 -2.01172,-4.921875 0,-2.558594 1.28907,-4.453125 1.28906,-1.914062 3.63281,-2.96875 2.34375,-1.074219 5.44922,-1.074219 3.14453,0 5.44922,1.113282 2.30468,1.113281 3.57421,3.164062 1.28907,2.050781 1.38672,4.902344 h -4.19922 q -0.15625,-2.519531 -1.83593,-3.945313 -1.67969,-1.445312 -4.4336,-1.445312 -1.73828,0 -3.10547,0.585937 -1.34765,0.566407 -2.1289,1.582032 -0.76172,0.996093 -0.76172,2.324218 0,1.054688 0.56641,1.835938 0.5664,0.78125 1.77734,1.367187 1.23047,0.585938 3.22266,1.074219 l 3.14453,0.742188 q 2.1875,0.527343 3.78906,1.269531 1.62109,0.742187 2.65625,1.738281 1.05469,0.976563 1.5625,2.246094 0.52734,1.25 0.52734,2.8125 0,2.617187 -1.34765,4.570312 -1.34766,1.953125 -3.78907,3.027344 -2.4414,1.074219 -5.74218,1.074219 z M 212.46172,74 V 44.898437 h 10.78125 q 3.125,0 5.39062,1.113282 2.26563,1.09375 3.49609,3.125 1.25,2.03125 1.25,4.824218 0,2.792969 -1.26953,4.824219 -1.26953,2.03125 -3.57422,3.144531 -2.30468,1.113282 -5.42968,1.113282 h -8.35938 v -3.75 h 8.28125 q 1.89453,0 3.24219,-0.644532 1.34766,-0.664062 2.08984,-1.855468 0.74219,-1.191407 0.74219,-2.832032 0,-1.640625 -0.74219,-2.8125 -0.74218,-1.191406 -2.08984,-1.835937 -1.34766,-0.644531 -3.24219,-0.644531 h -6.23047 V 74 Z m 34.32656,0 V 44.898437 h 4.33594 v 25.292969 h 13.76953 V 74 Z m 28.95546,0 10.56641,-29.101563 h 5.23438 L 302.03281,74 h -4.70703 l -5.60547,-16.40625 q -0.6836,-2.089844 -1.48438,-4.570313 -0.80078,-2.480468 -1.91406,-6.152343 h 1.23047 q -1.11328,3.671875 -1.91406,6.152343 -0.80079,2.480469 -1.50391,4.570313 L 280.35312,74 Z m 5.85938,-7.558594 V 62.75 h 14.58984 v 3.691406 z M 318.72266,74 V 62.378906 L 307.98047,44.898437 H 313 l 5.52734,9.179688 q 0.82032,1.347656 1.58203,2.695312 0.76172,1.328125 1.50391,2.65625 h -1.42578 q 0.72266,-1.328125 1.48437,-2.65625 0.76172,-1.347656 1.5625,-2.695312 l 5.46875,-9.179688 h 4.98047 L 323.01953,62.378906 V 74 Z m 27.52969,0 V 44.898437 h 19.57031 v 3.808594 h -15.23437 v 8.574219 h 14.10156 v 3.769531 h -14.10156 v 9.140625 h 15.23437 V 74 Z m 33.15468,0 V 44.898437 h 11.07422 q 3.125,0 5.39062,1.113282 2.28516,1.09375 3.51563,3.125 1.23047,2.03125 1.23047,4.824218 0,2.773438 -1.3086,4.804688 -1.30859,2.03125 -3.65234,3.125 -2.34375,1.09375 -5.46875,1.09375 h -8.28125 v -3.691406 h 8.39844 q 1.875,0 3.22265,-0.644532 1.36719,-0.644531 2.08985,-1.835937 0.72265,-1.210938 0.72265,-2.851563 0,-1.640625 -0.74219,-2.8125 -0.72265,-1.191406 -2.08984,-1.835937 -1.34766,-0.664063 -3.22266,-0.664063 h -6.54296 V 74 Z m 16.77734,0 -6.89453,-13.105469 h 4.74609 L 401.06718,74 Z"
     id="wordmark"
     style="font-weight:500;font-size:40px;font-family:'Adwaita Sans';letter-spacing:9.6;fill:#16161f"
     aria-label="RSPLAYER" />
</svg>
