<?xml version="1.0" encoding="utf-8"?>
<svg version="1.1" xmlns="http://www.w3.org/2000/svg" viewBox="0 0 1000 1000" xml:space="preserve">
  <g fill="rgba(255,255,255,0.15)">
    <path d="M846.5,153.5c-191.4-191.3-501.6-191.3-693,0c-191.3,191.4-191.3,501.6,0,693c191.4,191.4,501.6,191.4,693,0C1037.8,655.1,1037.8,344.9,846.5,153.5z M421.8,906c-3,11.6-13.5,19.4-25,19.4c-2.1,0-4.3-0.3-6.4-0.8C314.8,905.1,245.5,865.5,190,810c-55.5-55.5-95.1-124.7-114.5-200.4c-3.5-13.8,4.8-27.9,18.5-31.4c13.8-3.6,27.8,4.8,31.4,18.6c17.1,66.7,52.1,127.8,101,176.7c49,49,110.1,83.9,176.7,101.1C417,878.2,425.3,892.3,421.8,906z M447.6,806.1c-3,11.6-13.5,19.4-25,19.4c-2.1,0-4.3-0.3-6.4-0.8c-57.9-14.9-110.9-45.2-153.2-87.6c-42.5-42.4-72.7-95.4-87.6-153.3c-3.5-13.8,4.8-27.9,18.5-31.4c14-3.6,27.8,4.8,31.4,18.6c12.6,48.9,38.2,93.7,74.1,129.7c35.9,35.9,80.7,61.5,129.5,74.1C442.8,778.2,451.1,792.3,447.6,806.1z M662.4,662.4c-89.5,89.5-234.5,89.5-324,0c-89.5-89.5-89.5-234.5,0-324c89.5-89.5,234.5-89.5,324,0S751.9,573,662.4,662.4z M806.1,447.7c-2.1,0.6-4.3,0.8-6.4,0.8c-11.5,0-22-7.7-25-19.4c-12.5-48.9-38.2-93.7-74.1-129.7c-36-36-80.8-61.6-129.6-74.1c-13.8-3.6-22.1-17.6-18.6-31.4c3.6-13.8,17.8-22.2,31.4-18.6c57.8,14.9,110.8,45.2,153.3,87.6c42.5,42.5,72.8,95.5,87.6,153.3C828.2,430.1,819.9,444.1,806.1,447.7z M906,421.8c-2.2,0.5-4.3,0.8-6.4,0.8c-11.5,0-22-7.7-25-19.4c-17.2-66.7-52.1-127.8-101-176.8c-49-49-110.2-84-176.9-101.1c-13.8-3.5-22.1-17.6-18.6-31.4c3.5-13.8,17.8-22.2,31.4-18.6C685.2,94.9,754.5,134.5,810,190c55.5,55.5,95.1,124.8,114.5,200.4C928.1,404.2,919.8,418.3,906,421.8z M384.3,384.3c-64.1,64-64.1,167.7,0,231.8c64,64.1,167.8,64.1,231.8,0c64.1-64.1,64.1-167.8,0-231.8C552.1,320.2,448.3,320.2,384.3,384.3z M500.8,533.5c-18.1,0-32.7-14.7-32.7-32.7s14.6-32.7,32.7-32.7c18.1,0,32.7,14.7,32.7,32.7C533.5,518.9,518.9,533.5,500.8,533.5z"/>
  </g>
</svg>
